<svg width="30" height="33" viewBox="0 0 30 33" fill="none" xmlns="http://www.w3.org/2000/svg">
<path d="M5.5 0.583344V3.75001H3.91667C2.18598 3.75001 0.75 5.18599 0.75 6.91668V29.0833C0.75 30.814 2.18598 32.25 3.91667 32.25H26.0833C27.814 32.25 29.25 30.814 29.25 29.0833V6.91668C29.25 5.18599 27.814 3.75001 26.0833 3.75001H24.5V0.583344H21.3333V3.75001H8.66667V0.583344H5.5ZM3.91667 6.91668H26.0833V10.0833H3.91667V6.91668ZM3.91667 13.25H26.0833V29.0833H3.91667V13.25ZM11.0417 14.8333C10.4118 14.8333 9.80769 15.0836 9.36229 15.529C8.91689 15.9744 8.66667 16.5785 8.66667 17.2083C8.66667 17.8382 8.91689 18.4423 9.36229 18.8877C9.80769 19.3331 10.4118 19.5833 11.0417 19.5833C11.6716 19.5833 12.2756 19.3331 12.721 18.8877C13.1664 18.4423 13.4167 17.8382 13.4167 17.2083C13.4167 16.5785 13.1664 15.9744 12.721 15.529C12.2756 15.0836 11.6716 14.8333 11.0417 14.8333ZM18.6305 15.2972L9.13053 24.7972L11.3695 27.0361L20.8695 17.5361L18.6305 15.2972ZM18.9583 22.75C18.3284 22.75 17.7244 23.0002 17.279 23.4456C16.8336 23.891 16.5833 24.4951 16.5833 25.125C16.5833 25.7549 16.8336 26.359 17.279 26.8044C17.7244 27.2498 18.3284 27.5 18.9583 27.5C19.5882 27.5 20.1923 27.2498 20.6377 26.8044C21.0831 26.359 21.3333 25.7549 21.3333 25.125C21.3333 24.4951 21.0831 23.891 20.6377 23.4456C20.1923 23.0002 19.5882 22.75 18.9583 22.75Z" fill="white"/>
</svg>
