<svg width="32" height="31" viewBox="0 0 32 31" fill="none" xmlns="http://www.w3.org/2000/svg">
<path d="M20.082 0.765884C19.83 0.765884 17.9413 1.52096 15.5473 3.66289C13.4053 5.42609 12.5222 7.56543 11.3885 8.5737C10.8654 9.02556 10.3847 9.37083 9.93386 9.65729L8.58555 8.30898C8.4656 8.18898 8.32277 8.09429 8.16552 8.03055C8.00828 7.9668 7.83984 7.93529 7.67018 7.93789C7.34235 7.94311 7.0293 8.07525 6.79688 8.30651L3.03151 12.0471C2.91282 12.1649 2.81861 12.305 2.75432 12.4593C2.69003 12.6137 2.65694 12.7792 2.65694 12.9464C2.65694 13.1136 2.69003 13.2792 2.75432 13.4335C2.81861 13.5879 2.91282 13.7279 3.03151 13.8457L3.86276 14.672C3.75243 14.782 3.73566 14.7998 3.62279 14.912C3.23645 15.2958 3.23772 15.9173 3.62279 16.3023L4.87708 17.5591C5.25962 17.9429 5.87991 17.9429 6.26497 17.5616L6.46537 17.3637C7.70535 18.8729 8.23806 20.1512 8.44948 20.8H4.6C2.50113 20.8 0.8 23.0686 0.8 25.8667C0.8 28.6647 2.50113 30.9333 4.6 30.9333H27.4C28.613 30.9333 29.6217 30.1911 30.2451 29.256C30.8684 28.3209 31.2 27.1442 31.2 25.8667C31.2 24.5891 30.8684 23.4124 30.2451 22.4773C29.6217 21.5423 28.613 20.8 27.4 20.8H24.1245L25.7622 19.1622C25.9453 18.9843 26.0703 18.7553 26.1209 18.5051C26.1715 18.2549 26.1454 17.9952 26.0459 17.7601C25.9464 17.5251 25.7782 17.3255 25.5634 17.1877C25.3485 17.0498 25.0971 16.9801 24.8419 16.9876C24.5129 16.9974 24.2005 17.135 23.9711 17.3711L20.5422 20.8H13.0609C13.5118 20.481 13.9792 20.1093 14.4414 19.6471C16.5502 17.5398 17.0465 15.2658 17.0465 15.2658C17.0803 15.1018 17.0813 14.9327 17.0494 14.7684C17.0176 14.604 16.9534 14.4476 16.8607 14.3082C16.768 14.1688 16.6485 14.0491 16.5093 13.9562C16.3701 13.8632 16.2138 13.7987 16.0495 13.7665C16.0495 13.7665 14.582 13.4838 12.7591 12.2079C12.9265 12.0499 13.1343 11.8723 13.2811 11.7255C14.9189 10.0877 16.3048 7.44094 17.8159 6.05521C19.327 4.66947 21.342 4.92213 21.4675 4.92213C21.5929 4.79547 21.9729 4.54285 22.0983 4.41745C22.2237 4.29205 22.222 4.0414 22.222 4.0414C22.222 4.04141 22.097 2.78056 21.4675 1.89896C20.9633 1.14276 20.3341 0.640484 20.082 0.765884ZM7.6875 10.9932L9.27331 12.579C11.2445 14.5502 12.9627 15.3321 14.1693 15.763C13.8904 16.3283 13.4399 17.0644 12.6503 17.8535C12.6503 17.8543 12.6503 17.8552 12.6503 17.856C11.8558 18.6504 11.1191 19.1016 10.5573 19.3799C10.1094 18.1972 9.30132 16.5101 7.28177 14.4914C7.28012 14.4906 7.27847 14.4898 7.27682 14.4889L5.7207 12.9452L7.6875 10.9932ZM27.4 23.3333C27.5861 23.3333 27.8437 23.4423 28.1372 23.8826C28.4307 24.3228 28.6667 25.0455 28.6667 25.8667C28.6667 26.6878 28.4307 27.4105 28.1372 27.8508C27.8437 28.291 27.5861 28.4 27.4 28.4C27.2139 28.4 26.9563 28.291 26.6628 27.8508C26.3693 27.4105 26.1333 26.6878 26.1333 25.8667C26.1333 25.0455 26.3693 24.3228 26.6628 23.8826C26.9563 23.4423 27.2139 23.3333 27.4 23.3333Z" fill="white"/>
</svg>
