<svg width="38" height="28" viewBox="0 0 38 28" fill="none" xmlns="http://www.w3.org/2000/svg">
<path d="M11.0833 0.333344C8.46449 0.333344 6.33332 2.46451 6.33332 5.08334V7.57276C7.53982 8.30585 8.51876 9.44446 9.0856 10.8631L10.5762 14.5833H27.4207L28.9948 10.6528C29.5315 9.31334 30.4855 8.24929 31.6666 7.55421V5.08334C31.6666 2.46451 29.5355 0.333344 26.9167 0.333344H11.0833ZM34.8766 9.83334C33.5799 9.83334 32.4139 10.6231 31.9326 11.828L29.5638 17.75H8.42691L6.14468 12.0383C5.68235 10.8824 4.6584 9.96597 3.42023 9.84881C2.7869 9.78864 2.17165 9.9113 1.61115 10.2137C0.159235 10.9927 -0.359183 12.8405 0.253567 14.37L2.944 21.0991C3.666 22.901 5.41266 24.0833 7.35383 24.0833H7.91665V27.25H11.0833V24.0833H26.9167V27.25H30.0833V24.0833H30.6338C32.5765 24.0833 34.3232 22.8995 35.0436 21.096L37.7495 14.3329C38.3353 12.8667 37.8725 11.111 36.5187 10.2972C36.012 9.99163 35.4545 9.83334 34.8766 9.83334Z" fill="white"/>
</svg>
