<svg width="28" height="28" viewBox="0 0 28 28" fill="none" xmlns="http://www.w3.org/2000/svg">
<path d="M27.9333 0.0666504H5.13335C2.33528 0.0666504 0.0666809 2.33525 0.0666809 5.13332V27.9333H2.60001V9.49698C3.34608 9.93145 4.20868 10.1747 5.13335 10.1759V27.9333H27.9333V5.13332H10.1759C10.1747 4.20865 9.93148 3.34605 9.49701 2.59998H27.9333V0.0666504ZM23.5 12.7333C24.5488 12.7333 25.4 13.5845 25.4 14.6333C25.4 15.6821 24.5488 16.5333 23.5 16.5333C22.4512 16.5333 21.6 15.6821 21.6 14.6333C21.6 13.5845 22.4512 12.7333 23.5 12.7333ZM19.7 20.3333C20.7488 20.3333 21.6 21.1845 21.6 22.2333C21.6 23.2821 20.7488 24.1333 19.7 24.1333C18.6512 24.1333 17.8 23.2821 17.8 22.2333C17.8 21.1845 18.6512 20.3333 19.7 20.3333ZM12.1 11.4667C13.1488 11.4667 14 12.3179 14 13.3667C14 14.4155 13.1488 15.2667 12.1 15.2667C11.0512 15.2667 10.2 14.4155 10.2 13.3667C10.2 12.3179 11.0512 11.4667 12.1 11.4667Z" fill="white"/>
</svg>
