<svg width="30" height="30" viewBox="0 0 30 30" fill="none" xmlns="http://www.w3.org/2000/svg">
<path d="M10.25 0.75C8.28784 0.75 6.6875 2.35034 6.6875 4.3125V19.3047L7.875 18.4512L9.0625 19.3047V4.3125C9.0625 3.65845 9.59595 3.125 10.25 3.125H11.4375V0.75H10.25ZM24.5 0.75C22.5378 0.75 20.9375 2.35034 20.9375 4.3125V5.5H10.25V7.875H20.9375V10.25H10.25V12.625H20.9375V15H10.25V17.375H20.9375V19.3047L22.125 18.4512L23.3125 19.3047V4.3125C23.3125 3.65845 23.8459 3.125 24.5 3.125H25.6875V0.75H24.5ZM7.875 20.6035L7.13281 21.1973C7.13281 21.1973 5.94067 22.125 4.34961 22.125C2.75854 22.125 1.49219 21.1973 1.49219 21.1973L0.0078125 23.0527C0.0078125 23.0527 1.84009 24.5 4.34961 24.5C6.08447 24.5 7.18848 23.9248 7.875 23.498C8.56616 23.9202 9.72583 24.5 11.4746 24.5C13.2095 24.5 14.3135 23.9248 15 23.498C15.6912 23.9202 16.8508 24.5 18.5996 24.5C20.3345 24.5 21.4385 23.9248 22.125 23.498C22.8162 23.9202 23.9758 24.5 25.7246 24.5C28.2341 24.5 29.9922 23.0527 29.9922 23.0527L28.5078 21.1973C28.5078 21.1973 27.3157 22.125 25.7246 22.125C24.1335 22.125 22.8672 21.1973 22.8672 21.1973L22.125 20.6035L21.3828 21.1973C21.3828 21.1973 20.1907 22.125 18.5996 22.125C17.0085 22.125 15.7422 21.1973 15.7422 21.1973L15 20.6035L14.2578 21.1973C14.2578 21.1973 13.0657 22.125 11.4746 22.125C9.88354 22.125 8.61719 21.1973 8.61719 21.1973L7.875 20.6035ZM7.875 25.3535L7.13281 25.9473C7.13281 25.9473 5.94067 26.875 4.34961 26.875C2.75854 26.875 1.49219 25.9473 1.49219 25.9473L0.0078125 27.8027C0.0078125 27.8027 1.84009 29.25 4.34961 29.25C6.08447 29.25 7.18848 28.6748 7.875 28.248C8.56616 28.6702 9.72583 29.25 11.4746 29.25C13.2095 29.25 14.3135 28.6748 15 28.248C15.6912 28.6702 16.8508 29.25 18.5996 29.25C20.3345 29.25 21.4385 28.6748 22.125 28.248C22.8162 28.6702 23.9758 29.25 25.7246 29.25C28.2341 29.25 29.9922 27.8027 29.9922 27.8027L28.5078 25.9473C28.5078 25.9473 27.3157 26.875 25.7246 26.875C24.1335 26.875 22.8672 25.9473 22.8672 25.9473L22.125 25.3535L21.3828 25.9473C21.3828 25.9473 20.1907 26.875 18.5996 26.875C17.0085 26.875 15.7422 25.9473 15.7422 25.9473L15 25.3535L14.2578 25.9473C14.2578 25.9473 13.0657 26.875 11.4746 26.875C9.88354 26.875 8.61719 25.9473 8.61719 25.9473L7.875 25.3535Z" fill="white"/>
</svg>
