<svg width="32" height="31" viewBox="0 0 32 31" fill="none" xmlns="http://www.w3.org/2000/svg">
<path d="M19.1667 0.166644C18.3812 0.203754 17.5895 0.506813 16.9896 1.10675C16.3525 1.74379 16.0371 2.59112 16.0495 3.43227C16.0433 3.78481 16.1051 4.34145 16.1484 4.91664C16.1917 5.48565 16.235 6.0794 16.0989 6.49998C16.0495 6.66078 15.9567 6.79067 15.8516 6.89581C15.2145 7.53285 14.1631 7.53285 13.526 6.89581C12.2519 5.62172 10.1986 5.62172 8.92447 6.89581C7.87922 7.94106 7.86685 9.36977 8.18228 10.8047C8.46679 12.0973 9.41308 13.4085 9.66666 14.4166C9.83365 15.0846 9.88931 15.6474 9.66666 16C9.3636 16.4824 8.65233 16.569 8.08332 16C7.06282 14.9795 5.43619 14.9857 4.27343 16.1484C3.41991 17.0019 3.14159 18.2142 3.43228 19.3151C3.50032 19.5748 3.95181 21.1273 4.42186 22.8281L0.166656 27.0833L1.74999 30.25L23.9661 8.03383L8.08332 26.1927C8.08332 26.1927 12.3323 28.4749 12.6849 28.5677C13.7858 28.8584 14.998 28.5801 15.8516 27.7265C17.0143 26.5638 17.0205 24.9371 16 23.9166C15.4681 23.3847 15.4743 22.6549 16 22.3333C16.3278 22.1292 16.8535 22.123 17.5833 22.3333C18.5791 22.624 19.9336 23.5394 21.1953 23.8177C22.6302 24.1331 24.0589 24.1207 25.1042 23.0755C26.3782 21.8014 26.3782 19.748 25.1042 18.4739C24.4671 17.8369 24.4671 16.7855 25.1042 16.1484C25.2031 16.0495 25.3392 15.9567 25.5 15.901C25.9206 15.7588 26.5081 15.8082 27.0833 15.8515C27.6585 15.8948 28.2152 15.9567 28.5677 15.9505C29.4088 15.9629 30.2562 15.6474 30.8932 15.0104C31.4932 14.4105 31.7962 13.6188 31.8333 12.8333C31.8766 11.9427 31.5674 11.0335 30.8932 10.3594C30.6582 10.1243 30.4293 9.90167 30.25 9.66664C29.4398 8.61521 29.2109 7.53904 30.25 6.49998C30.887 5.86293 31.8457 4.27341 31.8333 3.43227C31.8457 2.59112 31.5303 1.74379 30.8932 1.10675C30.2005 0.414039 29.4088 0.154275 28.5677 0.166644C27.7266 0.154275 26.137 1.11293 25.5 1.74998C24.4609 2.78904 23.3848 2.5602 22.3333 1.74998C22.0983 1.57062 21.8695 1.34177 21.6406 1.10675C20.9665 0.432594 20.0573 0.123349 19.1667 0.166644Z" fill="white"/>
</svg>
