<svg width="48" height="48" viewBox="0 0 48 48" fill="none" xmlns="http://www.w3.org/2000/svg">
<circle cx="24" cy="24" r="23.5" stroke="#109EFF"/>
<circle cx="24" cy="24" r="23.5" stroke="url(#paint0_linear_13_2513)"/>
<path d="M24 13.6001C19.14 13.6001 15.2 17.5401 15.2 22.4001C15.2 28.1873 20.9216 30.9577 21.6384 31.6025C22.3704 32.2609 22.9752 33.7369 23.2192 34.5737C23.3376 34.9801 23.6704 35.1857 24 35.1945C24.3304 35.1849 24.6624 34.9793 24.7808 34.5737C25.0248 33.7369 25.6296 32.2617 26.3616 31.6025C27.0784 30.9577 32.8 28.1873 32.8 22.4001C32.8 17.5401 28.86 13.6001 24 13.6001ZM24 24.8001C22.6744 24.8001 21.6 23.7257 21.6 22.4001C21.6 21.0745 22.6744 20.0001 24 20.0001C25.3256 20.0001 26.4 21.0745 26.4 22.4001C26.4 23.7257 25.3256 24.8001 24 24.8001Z" fill="url(#paint1_linear_13_2513)"/>
<path d="M24 13.6001C19.14 13.6001 15.2 17.5401 15.2 22.4001C15.2 28.1873 20.9216 30.9577 21.6384 31.6025C22.3704 32.2609 22.9752 33.7369 23.2192 34.5737C23.3376 34.9801 23.6704 35.1857 24 35.1945C24.3304 35.1849 24.6624 34.9793 24.7808 34.5737C25.0248 33.7369 25.6296 32.2617 26.3616 31.6025C27.0784 30.9577 32.8 28.1873 32.8 22.4001C32.8 17.5401 28.86 13.6001 24 13.6001ZM24 24.8001C22.6744 24.8001 21.6 23.7257 21.6 22.4001C21.6 21.0745 22.6744 20.0001 24 20.0001C25.3256 20.0001 26.4 21.0745 26.4 22.4001C26.4 23.7257 25.3256 24.8001 24 24.8001Z" fill="url(#paint2_linear_13_2513)"/>
<defs>
<linearGradient id="paint0_linear_13_2513" x1="-3.33913" y1="-12.9231" x2="62.7898" y2="-4.95294" gradientUnits="userSpaceOnUse">
<stop stop-color="#9A8A62"/>
<stop offset="1" stop-color="#D7B582"/>
</linearGradient>
<linearGradient id="paint1_linear_13_2513" x1="15.5782" y1="1.68593" x2="37.4361" y2="4.30826" gradientUnits="userSpaceOnUse">
<stop stop-color="#0098FF"/>
<stop offset="0.489583" stop-color="#56BBFF"/>
</linearGradient>
<linearGradient id="paint2_linear_13_2513" x1="13.9757" y1="7.78622" x2="38.3401" y2="10.1795" gradientUnits="userSpaceOnUse">
<stop stop-color="#9A8A62"/>
<stop offset="1" stop-color="#D7B582"/>
</linearGradient>
</defs>
</svg>
