<svg width="48" height="48" viewBox="0 0 48 48" fill="none" xmlns="http://www.w3.org/2000/svg">
<path d="M16 16C15.334 16 14.7468 16.3271 14.3848 16.8301C14.1408 17.1681 14.2486 17.6472 14.6016 17.8672L23.3828 23.3398C23.7608 23.5758 24.2392 23.5758 24.6172 23.3398L33.3613 17.8203C33.7283 17.5883 33.8198 17.0841 33.5488 16.7461C33.1838 16.2921 32.627 16 32 16H16ZM33.5156 20.0859C33.432 20.0869 33.3471 20.1099 33.2676 20.1602L24.6172 25.6152C24.2392 25.8502 23.7608 25.8493 23.3828 25.6133L14.7305 20.2227C14.4125 20.0247 14 20.2539 14 20.6289V30C14 31.105 14.895 32 16 32H32C33.105 32 34 31.105 34 30V20.5645C34 20.2825 33.7665 20.0832 33.5156 20.0859Z" fill="url(#paint0_linear_13_2501)"/>
<path d="M16 16C15.334 16 14.7468 16.3271 14.3848 16.8301C14.1408 17.1681 14.2486 17.6472 14.6016 17.8672L23.3828 23.3398C23.7608 23.5758 24.2392 23.5758 24.6172 23.3398L33.3613 17.8203C33.7283 17.5883 33.8198 17.0841 33.5488 16.7461C33.1838 16.2921 32.627 16 32 16H16ZM33.5156 20.0859C33.432 20.0869 33.3471 20.1099 33.2676 20.1602L24.6172 25.6152C24.2392 25.8502 23.7608 25.8493 23.3828 25.6133L14.7305 20.2227C14.4125 20.0247 14 20.2539 14 20.6289V30C14 31.105 14.895 32 16 32H32C33.105 32 34 31.105 34 30V20.5645C34 20.2825 33.7665 20.0832 33.5156 20.0859Z" fill="url(#paint1_linear_13_2501)"/>
<circle cx="24" cy="24" r="23.5" stroke="#109EFF"/>
<circle cx="24" cy="24" r="23.5" stroke="url(#paint2_linear_13_2501)"/>
<defs>
<linearGradient id="paint0_linear_13_2501" x1="14.4298" y1="7.17241" x2="38.8007" y2="11.6566" gradientUnits="userSpaceOnUse">
<stop stop-color="#0098FF"/>
<stop offset="0.489583" stop-color="#56BBFF"/>
</linearGradient>
<linearGradient id="paint1_linear_13_2501" x1="12.6087" y1="11.6923" x2="39.9423" y2="15.8103" gradientUnits="userSpaceOnUse">
<stop stop-color="#9A8A62"/>
<stop offset="1" stop-color="#D7B582"/>
</linearGradient>
<linearGradient id="paint2_linear_13_2501" x1="-3.33913" y1="-12.9231" x2="62.7898" y2="-4.95294" gradientUnits="userSpaceOnUse">
<stop stop-color="#9A8A62"/>
<stop offset="1" stop-color="#D7B582"/>
</linearGradient>
</defs>
</svg>
