<svg width="48" height="48" viewBox="0 0 48 48" fill="none" xmlns="http://www.w3.org/2000/svg">
<circle cx="24" cy="24" r="23.5" stroke="#109EFF"/>
<circle cx="24" cy="24" r="23.5" stroke="url(#paint0_linear_13_2509)"/>
<path d="M32.023 26.488C31.393 26.473 30.6 26.436 30.099 26.348C29.557 26.252 28.905 26.066 28.446 25.923C28.086 25.811 27.694 25.91 27.427 26.176L25.21 28.38C23.678 27.573 22.451 26.633 21.412 25.588C20.367 24.549 19.427 23.322 18.62 21.79L20.824 19.572C21.09 19.305 21.189 18.913 21.077 18.553C20.935 18.095 20.748 17.443 20.653 16.901C20.564 16.4 20.528 15.607 20.512 14.977C20.499 14.432 20.055 14 19.51 14H16C15.562 14 15 14.328 15 15C15 19.539 16.84 23.874 19.966 27.034C23.126 30.16 27.461 32 32 32C32.672 32 33 31.438 33 31V27.49C33 26.945 32.568 26.501 32.023 26.488Z" fill="url(#paint1_linear_13_2509)"/>
<defs>
<linearGradient id="paint0_linear_13_2509" x1="-3.33913" y1="-12.9231" x2="62.7898" y2="-4.95294" gradientUnits="userSpaceOnUse">
<stop stop-color="#9A8A62"/>
<stop offset="1" stop-color="#D7B582"/>
</linearGradient>
<linearGradient id="paint1_linear_13_2509" x1="13.7478" y1="9.15384" x2="38.5462" y2="12.1426" gradientUnits="userSpaceOnUse">
<stop stop-color="#9A8A62"/>
<stop offset="1" stop-color="#D7B582"/>
</linearGradient>
</defs>
</svg>
