<svg width="18" height="23" viewBox="0 0 18 23" fill="none" xmlns="http://www.w3.org/2000/svg">
<path d="M9.00001 0.600098C4.14001 0.600098 0.200012 4.5401 0.200012 9.4001C0.200012 15.1873 5.92161 17.9577 6.63841 18.6025C7.37041 19.2609 7.97521 20.7369 8.21921 21.5737C8.33761 21.9801 8.67041 22.1857 9.00001 22.1945C9.33041 22.1849 9.66241 21.9793 9.78081 21.5737C10.0248 20.7369 10.6296 19.2617 11.3616 18.6025C12.0784 17.9577 17.8 15.1873 17.8 9.4001C17.8 4.5401 13.86 0.600098 9.00001 0.600098ZM9.00001 11.8001C7.67441 11.8001 6.60001 10.7257 6.60001 9.4001C6.60001 8.0745 7.67441 7.0001 9.00001 7.0001C10.3256 7.0001 11.4 8.0745 11.4 9.4001C11.4 10.7257 10.3256 11.8001 9.00001 11.8001Z" fill="url(#paint0_linear_13_2516)"/>
<path d="M9.00001 0.600098C4.14001 0.600098 0.200012 4.5401 0.200012 9.4001C0.200012 15.1873 5.92161 17.9577 6.63841 18.6025C7.37041 19.2609 7.97521 20.7369 8.21921 21.5737C8.33761 21.9801 8.67041 22.1857 9.00001 22.1945C9.33041 22.1849 9.66241 21.9793 9.78081 21.5737C10.0248 20.7369 10.6296 19.2617 11.3616 18.6025C12.0784 17.9577 17.8 15.1873 17.8 9.4001C17.8 4.5401 13.86 0.600098 9.00001 0.600098ZM9.00001 11.8001C7.67441 11.8001 6.60001 10.7257 6.60001 9.4001C6.60001 8.0745 7.67441 7.0001 9.00001 7.0001C10.3256 7.0001 11.4 8.0745 11.4 9.4001C11.4 10.7257 10.3256 11.8001 9.00001 11.8001Z" fill="url(#paint1_linear_13_2516)"/>
<defs>
<linearGradient id="paint0_linear_13_2516" x1="0.578237" y1="-11.3141" x2="22.4361" y2="-8.69174" gradientUnits="userSpaceOnUse">
<stop stop-color="#0098FF"/>
<stop offset="0.489583" stop-color="#56BBFF"/>
</linearGradient>
<linearGradient id="paint1_linear_13_2516" x1="-1.02434" y1="-5.21378" x2="23.3401" y2="-2.82046" gradientUnits="userSpaceOnUse">
<stop stop-color="#9A8A62"/>
<stop offset="1" stop-color="#D7B582"/>
</linearGradient>
</defs>
</svg>
