<svg width="20" height="20" viewBox="0 0 20 20" fill="none" xmlns="http://www.w3.org/2000/svg">
<path d="M10 0C4.486 0 0 4.486 0 10C0 15.514 4.486 20 10 20C15.514 20 20 15.514 20 10C20 4.486 15.514 0 10 0ZM12.2805 13.2805C12.134 13.427 11.942 13.5 11.75 13.5C11.558 13.5 11.366 13.427 11.2195 13.2805L8.7195 10.7805C8.579 10.6395 8.5 10.449 8.5 10.25V4.75C8.5 4.3355 8.8355 4 9.25 4C9.6645 4 10 4.3355 10 4.75V9.9395L12.2805 12.22C12.573 12.5125 12.573 12.9875 12.2805 13.2805Z" fill="url(#paint0_linear_13_2507)"/>
<path d="M10 0C4.486 0 0 4.486 0 10C0 15.514 4.486 20 10 20C15.514 20 20 15.514 20 10C20 4.486 15.514 0 10 0ZM12.2805 13.2805C12.134 13.427 11.942 13.5 11.75 13.5C11.558 13.5 11.366 13.427 11.2195 13.2805L8.7195 10.7805C8.579 10.6395 8.5 10.449 8.5 10.25V4.75C8.5 4.3355 8.8355 4 9.25 4C9.6645 4 10 4.3355 10 4.75V9.9395L12.2805 12.22C12.573 12.5125 12.573 12.9875 12.2805 13.2805Z" fill="url(#paint1_linear_13_2507)"/>
<defs>
<linearGradient id="paint0_linear_13_2507" x1="0.429801" y1="-11.0345" x2="25.0914" y2="-7.40431" gradientUnits="userSpaceOnUse">
<stop stop-color="#0098FF"/>
<stop offset="0.489583" stop-color="#56BBFF"/>
</linearGradient>
<linearGradient id="paint1_linear_13_2507" x1="-1.3913" y1="-5.38462" x2="26.1624" y2="-2.06373" gradientUnits="userSpaceOnUse">
<stop stop-color="#9A8A62"/>
<stop offset="1" stop-color="#D7B582"/>
</linearGradient>
</defs>
</svg>
